<svg xmlns="http://www.w3.org/2000/svg" viewBox="0 0 1 1">
	<clipPath id="clip-path" clipPathUnits="objectBoundingBox">
		<path d="M21 3H17V6H21V3ZM23 6L22.9893 6.2041C22.887 7.21278 22.0357 8 21 8H17C15.8954 8 15 7.10457 15 6V3C15 1.89543 15.8954 1 17 1H21L21.2041 1.01074C22.2128 1.113 23 1.96435 23 3V6Z" transform="scale(0.04166666666)" />
		<path d="M21 18H17V21H21V18ZM23 21L22.9893 21.2041C22.887 22.2128 22.0357 23 21 23H17C15.8954 23 15 22.1046 15 21V18C15 16.8954 15.8954 16 17 16H21L21.2041 16.0107C22.2128 16.113 23 16.9643 23 18V21Z" transform="scale(0.04166666666)" />
		<path d="M21 10.5H17V13.5H21V10.5ZM23 13.5L22.9893 13.7041C22.887 14.7128 22.0357 15.5 21 15.5H17C15.8954 15.5 15 14.6046 15 13.5V10.5C15 9.39543 15.8954 8.5 17 8.5H21L21.2041 8.51074C22.2128 8.613 23 9.46435 23 10.5V13.5Z" transform="scale(0.04166666666)" />
		<path d="M11.9998 8.49976H2.99976V15.4998H11.9998V8.49976ZM13.9998 15.4998C13.9998 16.6043 13.1043 17.4998 11.9998 17.4998H2.99976C1.89519 17.4998 0.999756 16.6043 0.999756 15.4998V8.49976C0.999756 7.39519 1.89519 6.49976 2.99976 6.49976H11.9998L12.2039 6.5105C13.2125 6.61276 13.9998 7.46411 13.9998 8.49976V15.4998Z" transform="scale(0.04166666666)" />
	</clipPath>
</svg>
