<svg xmlns="http://www.w3.org/2000/svg" viewBox="0 0 1 1">
	<clipPath id="clip-path" clipPathUnits="objectBoundingBox">
		<path d="M15.4998 14.4998H8.49976V19.4998H15.4998V14.4998ZM17.4998 19.4998C17.4998 20.6043 16.6043 21.4998 15.4998 21.4998H8.49976C7.39519 21.4998 6.49976 20.6043 6.49976 19.4998V14.4998C6.49976 13.3952 7.39519 12.4998 8.49976 12.4998H15.4998L15.7039 12.5105C16.7125 12.6128 17.4998 13.4641 17.4998 14.4998V19.4998Z" transform="scale(0.04166666666)" />
		<path d="M9.5 4.5H3V9.5H9.5V4.5ZM11.5 9.5C11.5 10.6046 10.6046 11.5 9.5 11.5H3C1.89543 11.5 1 10.6046 1 9.5V4.5C1 3.39543 1.89543 2.5 3 2.5H9.5L9.7041 2.51074C10.7128 2.613 11.5 3.46435 11.5 4.5V9.5Z" transform="scale(0.04166666666)" />
		<path d="M20.9998 4.5H14.4998V9.5H20.9998V4.5ZM22.9998 9.5C22.9998 10.6046 22.1043 11.5 20.9998 11.5H14.4998C13.3952 11.5 12.4998 10.6046 12.4998 9.5V4.5C12.4998 3.39543 13.3952 2.5 14.4998 2.5H20.9998L21.2039 2.51074C22.2125 2.613 22.9998 3.46435 22.9998 4.5V9.5Z" transform="scale(0.04166666666)" />
	</clipPath>
</svg>
