<svg xmlns="http://www.w3.org/2000/svg" viewBox="0 0 1 1">
	<clipPath id="clip-path" clipPathUnits="objectBoundingBox">
		<path d="M 7.5,26.25 A 3.750375,3.750375 0 0 0 3.75,30 V 56.25 A 3.750375,3.750375 0 0 0 7.5,60 h 31.875 a 3.750375,3.750375 0 0 0 3.75,-3.75 V 30 a 3.750375,3.750375 0 0 0 -3.75,-3.75 z m 3.75,7.5 H 35.625 V 52.5 H 11.25 Z" id="rect1" transform="scale(0.01111111111)" />
		<path d="M 50.625,26.25 A 3.750375,3.750375 0 0 0 46.875,30 V 56.25 A 3.750375,3.750375 0 0 0 50.625,60 H 82.5 a 3.750375,3.750375 0 0 0 3.75,-3.75 V 30 A 3.750375,3.750375 0 0 0 82.5,26.25 Z m 3.75,7.5 H 78.75 V 52.5 H 54.375 Z" id="rect2" transform="scale(0.01111111111)" />
	</clipPath>
</svg>
