<svg xmlns="http://www.w3.org/2000/svg" viewBox="0 0 1 1">
	<clipPath id="clip-path" clipPathUnits="objectBoundingBox">
		<path d="M7 7H3V10H7V7ZM9 10L8.98926 10.2041C8.887 11.2128 8.03565 12 7 12H3C1.89543 12 1 11.1046 1 10V7C1 5.89543 1.89543 5 3 5H7L7.2041 5.01074C8.21278 5.113 9 5.96435 9 7V10Z" transform="scale(0.04166666666)"/>
		<path d="M7 14H3V17H7V14ZM9 17L8.98926 17.2041C8.887 18.2128 8.03565 19 7 19H3C1.89543 19 1 18.1046 1 17V14C1 12.8954 1.89543 12 3 12H7L7.2041 12.0107C8.21278 12.113 9 12.9643 9 14V17Z" transform="scale(0.04166666666)"/>
		<path d="M14 7H10V10H14V7ZM16 10L15.9893 10.2041C15.887 11.2128 15.0357 12 14 12H10C8.89543 12 8 11.1046 8 10V7C8 5.89543 8.89543 5 10 5H14L14.2041 5.01074C15.2128 5.113 16 5.96435 16 7V10Z" transform="scale(0.04166666666)"/>
		<path d="M14 14H10V17H14V14ZM16 17L15.9893 17.2041C15.887 18.2128 15.0357 19 14 19H10C8.89543 19 8 18.1046 8 17V14C8 12.8954 8.89543 12 10 12H14L14.2041 12.0107C15.2128 12.113 16 12.9643 16 14V17Z" transform="scale(0.04166666666)"/>
		<path d="M21 7H17V10H21V7ZM23 10L22.9893 10.2041C22.887 11.2128 22.0357 12 21 12H17C15.8954 12 15 11.1046 15 10V7C15 5.89543 15.8954 5 17 5H21L21.2041 5.01074C22.2128 5.113 23 5.96435 23 7V10Z" transform="scale(0.04166666666)"/>
		<path d="M21 16C21 16.5523 20.5523 17 20 17C19.4477 17 19 16.5523 19 16C19 15.4477 19.4477 15 20 15C20.5523 15 21 15.4477 21 16Z" transform="scale(0.04166666666)"/>
		<path d="M19 16C19 16.5523 18.5523 17 18 17C17.4477 17 17 16.5523 17 16C17 15.4477 17.4477 15 18 15C18.5523 15 19 15.4477 19 16Z" transform="scale(0.04166666666)"/>
		<path d="M23 16C23 16.5523 22.5523 17 22 17C21.4477 17 21 16.5523 21 16C21 15.4477 21.4477 15 22 15C22.5523 15 23 15.4477 23 16Z" transform="scale(0.04166666666)"/>
	</clipPath>
</svg>

