<svg xmlns="http://www.w3.org/2000/svg" viewBox="0 0 1 1">
	<clipPath id="clip-path" clipPathUnits="objectBoundingBox">
		<path d="M9.50024 14.4998H3.00024V19.4998H9.50024V14.4998ZM11.5002 19.4998C11.5002 20.6043 10.6048 21.4998 9.50024 21.4998H3.00024C1.89567 21.4998 1.00024 20.6043 1.00024 19.4998V14.4998C1.00024 13.3952 1.89567 12.4998 3.00024 12.4998H9.50024L9.70435 12.5105C10.713 12.6128 11.5002 13.4641 11.5002 14.4998V19.4998Z" transform="scale(0.04166666666)" />
		<path d="M9.50024 4.5H3.00024V9.5H9.50024V4.5ZM11.5002 9.5C11.5002 10.6046 10.6048 11.5 9.50024 11.5H3.00024C1.89567 11.5 1.00024 10.6046 1.00024 9.5V4.5C1.00024 3.39543 1.89567 2.5 3.00024 2.5H9.50024L9.70435 2.51074C10.713 2.613 11.5002 3.46435 11.5002 4.5V9.5Z" transform="scale(0.04166666666)" />
		<path d="M21 9.50024H14.5V14.5002H21V9.50024ZM23 14.5002C23 15.6048 22.1046 16.5002 21 16.5002H14.5C13.3954 16.5002 12.5 15.6048 12.5 14.5002V9.50024C12.5 8.39567 13.3954 7.50024 14.5 7.50024H21L21.2041 7.51099C22.2128 7.61325 23 8.46459 23 9.50024V14.5002Z" transform="scale(0.04166666666)" />
	</clipPath>
</svg>
