<svg xmlns="http://www.w3.org/2000/svg" viewBox="0 0 1 1">
	<clipPath id="clip-path" clipPathUnits="objectBoundingBox">
		<path d="M21 15.9998H17V18.9998H21V15.9998ZM23 18.9998L22.9893 19.2039C22.887 20.2125 22.0357 20.9998 21 20.9998H17C15.8954 20.9998 15 20.1043 15 18.9998V15.9998C15 14.8952 15.8954 13.9998 17 13.9998H21L21.2041 14.0105C22.2128 14.1128 23 14.9641 23 15.9998V18.9998Z" transform="scale(0.04166666666)" />
		<path d="M21 8.00024H17V11.0002H21V8.00024ZM23 11.0002L22.9893 11.2043C22.887 12.213 22.0357 13.0002 21 13.0002H17C15.8954 13.0002 15 12.1048 15 11.0002V8.00024C15 6.89567 15.8954 6.00024 17 6.00024H21L21.2041 6.01099C22.2128 6.11325 23 6.96459 23 8.00024V11.0002Z" transform="scale(0.04166666666)" />
		<path d="M11.9998 6H2.99976V13H11.9998V6ZM13.9998 13C13.9998 14.1046 13.1043 15 11.9998 15H2.99976C1.89519 15 0.999756 14.1046 0.999756 13V6C0.999756 4.89543 1.89519 4 2.99976 4H11.9998L12.2039 4.01074C13.2125 4.113 13.9998 4.96435 13.9998 6V13Z" transform="scale(0.04166666666)" />
	</clipPath>
</svg>
