<svg xmlns="http://www.w3.org/2000/svg" viewBox="0 0 1 1">
    <defs>
        <clipPath id="clip-path" clipPathUnits="objectBoundingBox">
            <path d="M9.50024 14.4998H3.00024V19.4998H9.50024V14.4998ZM11.5002 19.4998C11.5002 20.6043 10.6048 21.4998 9.50024 21.4998H3.00024C1.89567 21.4998 1.00024 20.6043 1.00024 19.4998V14.4998C1.00024 13.3952 1.89567 12.4998 3.00024 12.4998H9.50024L9.70435 12.5105C10.713 12.6128 11.5002 13.4641 11.5002 14.4998V19.4998Z" transform="scale(0.04166666666)" />
            <path d="M9.50024 4.5H3.00024V9.5H9.50024V4.5ZM11.5002 9.5C11.5002 10.6046 10.6048 11.5 9.50024 11.5H3.00024C1.89567 11.5 1.00024 10.6046 1.00024 9.5V4.5C1.00024 3.39543 1.89567 2.5 3.00024 2.5H9.50024L9.70435 2.51074C10.713 2.613 11.5002 3.46435 11.5002 4.5V9.5Z" transform="scale(0.04166666666)" />
            <path d="M21 4.5H14.5V9.5H21V4.5ZM23 9.5C23 10.6046 22.1046 11.5 21 11.5H14.5C13.3954 11.5 12.5 10.6046 12.5 9.5V4.5C12.5 3.39543 13.3954 2.5 14.5 2.5H21L21.2041 2.51074C22.2128 2.613 23 3.46435 23 4.5V9.5Z" transform="scale(0.04166666666)" />
            <path d="M21 14.4998H14.5V19.4998H21V14.4998ZM23 19.4998C23 20.6043 22.1046 21.4998 21 21.4998H14.5C13.3954 21.4998 12.5 20.6043 12.5 19.4998V14.4998C12.5 13.3952 13.3954 12.4998 14.5 12.4998H21L21.2041 12.5105C22.2128 12.6128 23 13.4641 23 14.4998V19.4998Z" transform="scale(0.04166666666)" />
        </clipPath>
    </defs>
</svg>
