<svg xmlns="http://www.w3.org/2000/svg" viewBox="0 0 1 1">
	<clipPath id="clip-path" clipPathUnits="objectBoundingBox">
		<path d="M16.5 3.99976H7.5V10.9998H16.5V3.99976ZM18.5 10.9998C18.5 12.1043 17.6046 12.9998 16.5 12.9998H7.5C6.39543 12.9998 5.5 12.1043 5.5 10.9998V3.99976C5.5 2.89519 6.39543 1.99976 7.5 1.99976H16.5L16.7041 2.0105C17.7128 2.11276 18.5 2.96411 18.5 3.99976V10.9998Z" transform="scale(0.04166666666)" />
		<path d="M6 15.9998H3V18.9998H6V15.9998ZM8 18.9998L7.98926 19.2039C7.887 20.2125 7.03565 20.9998 6 20.9998H3C1.89543 20.9998 1 20.1043 1 18.9998V15.9998C1 14.8952 1.89543 13.9998 3 13.9998H6L6.2041 14.0105C7.21278 14.1128 8 14.9641 8 15.9998V18.9998Z" transform="scale(0.04166666666)" />
		<path d="M13.5 15.9998H10.5V18.9998H13.5V15.9998ZM15.5 18.9998L15.4893 19.2039C15.387 20.2125 14.5357 20.9998 13.5 20.9998H10.5C9.39543 20.9998 8.5 20.1043 8.5 18.9998V15.9998C8.5 14.8952 9.39543 13.9998 10.5 13.9998H13.5L13.7041 14.0105C14.7128 14.1128 15.5 14.9641 15.5 15.9998V18.9998Z" transform="scale(0.04166666666)" />
		<path d="M21 15.9998H18V18.9998H21V15.9998ZM23 18.9998L22.9893 19.2039C22.887 20.2125 22.0357 20.9998 21 20.9998H18C16.8954 20.9998 16 20.1043 16 18.9998V15.9998C16 14.8952 16.8954 13.9998 18 13.9998H21L21.2041 14.0105C22.2128 14.1128 23 14.9641 23 15.9998V18.9998Z" transform="scale(0.04166666666)" />
	</clipPath>
</svg>
