<svg xmlns="http://www.w3.org/2000/svg" viewBox="0 0 1 1">
    <clipPath id="clip-path" clipPathUnits="objectBoundingBox">
        <path d="m 0.29167,0.52083 a 0.04167,0.04167 0 0 0 -0.04167,0.04167 v 0.35417 a 0.04167,0.04167 0 0 0 0.04167,0.04167 h 0.41667 a 0.04167,0.04167 0 0 0 0.04167,-0.04167 V 0.5625 a 0.04167,0.04167 0 0 0 -0.04167,-0.04167 z m 0.04167,0.08333 h 0.33333 v 0.29167 h -0.33333 z" />
        <path d="m 0.29167,0.08333 a 0.04167,0.04167 0 0 0 -0.04167,0.04167 v 0.3125 a 0.04167,0.04167 0 0 0 0.04167,0.04167 h 0.41667 a 0.04167,0.04167 0 0 0 0.04167,-0.04167 V 0.125 a 0.04167,0.04167 0 0 0 -0.04167,-0.04167 z M 0.33333,0.16667 h 0.33334 v 0.22917 h -0.33334 z" />
    </clipPath>
</svg>
