<svg xmlns="http://www.w3.org/2000/svg" viewBox="0 0 1 1">
	<clipPath id="clip-path" clipPathUnits="objectBoundingBox">
		<path d="M 56.25,45 A 3.750375,3.750375 0 0 0 52.5,48.75 V 67.5 a 3.750375,3.750375 0 0 0 3.75,3.75 h 22.5 A 3.750375,3.750375 0 0 0 82.5,67.5 V 48.75 A 3.750375,3.750375 0 0 0 78.75,45 Z M 60,52.5 H 75 V 63.75 H 60 Z" transform="scale(0.01111111111)" />
		<path d="M 11.25,18.75 A 3.750375,3.750375 0 0 0 7.5,22.5 v 30 a 3.750375,3.750375 0 0 0 3.75,3.75 h 35.625 a 3.750375,3.750375 0 0 0 3.75,-3.75 v -30 a 3.750375,3.750375 0 0 0 -3.75,-3.75 z m 3.75,7.5 h 28.125 v 22.5 H 15 Z" transform="scale(0.01111111111)" />
	</clipPath>
</svg>
